# xmcd
#
# Track frame offsets:
#	150
#	15882
#	33958
#	45744
#	63603
#	79970
#	90415
#	106252
#	117168
#	135468
#	152317
#	171842
#	179790
#	193838
#	208474
#	225836
#
# Disc length: 3179 seconds
#
# Revision: 1
# Processed by: cddbd v1.5.2PL0 Copyright (c) Steve Scherf et al.
# Submitted via: audiograbber 1.83.01
#
DISCID=cb0c6910
DTITLE=Jim Gaudet - ReCalling It Quits
DYEAR=2007
DGENRE=
TTITLE0=Texas Girls
TTITLE1=The Railroad Boys
TTITLE2=I've Found I'm Lost
TTITLE3=Get Otta' Town
TTITLE4=Split Pea Soup
TTITLE5=The Only One
TTITLE6=Papa Joe
TTITLE7=Good To Go
TTITLE8=The Little Things
TTITLE9=Randall's Truth
TTITLE10=Poor Boy Blues
TTITLE11=Rosie
TTITLE12=Little Maggie
TTITLE13=Blue
TTITLE14=Apple Of Your Eye
TTITLE15=Why You Been Gone So Long
EXTD=
EXTT0=
EXTT1=
EXTT2=
EXTT3=
EXTT4=
EXTT5=
EXTT6=
EXTT7=
EXTT8=
EXTT9=
EXTT10=
EXTT11=
EXTT12=
EXTT13=
EXTT14=
EXTT15=
PLAYORDER=
